<?xml version="1.0" encoding="UTF-8" standalone="no"?>
<!-- Created with Inkscape (http://www.inkscape.org/) -->

<svg
   width="322.98737mm"
   height="325.6832mm"
   viewBox="0 0 322.98737 325.6832"
   version="1.1"
   id="svg1"
   xml:space="preserve"
   xmlns="http://www.w3.org/2000/svg"
   xmlns:svg="http://www.w3.org/2000/svg"><defs
     id="defs1" /><g
     id="layer1"
     transform="translate(56.465361,14.260789)"><path
       style="fill:#902020;fill-opacity:1"
       d="m -41.161506,311.21216 c -6.490649,-0.89186 -13.079233,-7.1494 -14.658363,-13.92185 -0.91541,-3.92594 -0.830833,-295.1781184 0.08679,-298.8784224 1.439897,-5.8063564 5.020798,-9.8768476 10.489328,-11.9234566 2.32615,-0.870566 298.323501,-1.048764 300.012001,-0.180615 0.4953,0.254662 1.04183,0.463021 1.21451,0.463021 3.05758,0 8.79879,6.6766391 10.02515,11.6585708 0.75751,3.07731 0.64348,296.2025322 -0.11631,298.9675722 -1.78403,6.49253 -5.9665,11.06999 -11.94665,13.07492 -1.76067,0.59028 -290.919152,1.31563 -295.106458,0.74026 z M 117.60729,279.80483 c 9.52994,-1.03034 17.59166,-2.57438 24.47396,-4.68745 6.39111,-1.96227 7.95928,-2.50624 13.22916,-4.58902 32.79917,-12.96294 62.98235,-43.35744 74.61119,-75.13357 0.26628,-0.7276 0.85761,-2.33495 1.31408,-3.57187 2.90222,-7.86444 6.01266,-21.46139 6.74865,-29.50104 0.0933,-1.01865 0.24064,-2.26466 0.32752,-2.76891 0.15798,-0.91682 0.15798,-0.91682 -1.34724,0.42476 -3.78778,3.376 -5.25176,3.25985 -9.58399,-0.76036 -0.82249,-0.76326 -0.82249,-0.76326 -1.00614,1.83208 -2.45003,34.62374 -25.65911,70.14433 -59.29011,90.74117 C 110.92326,286.18573 31.867362,265.56027 -0.39860322,208.09479 -8.731659,193.25367 -14.329045,177.28674 -15.749161,164.30625 c -0.08756,-0.80036 -0.264345,-1.99099 -0.39285,-2.64583 -0.925917,-4.71837 -0.733982,-4.87695 2.160644,-1.78511 7.0087632,7.48629 6.1840683,7.23465 10.1908278,3.10957 3.19867582,-3.29314 3.78632131,-4.07756 3.78879607,-5.05752 0.002198842,-0.87071 0.10775906,-0.74809 -11.26436987,-13.08498 -1.466935,-1.59138 -4.187267,-4.61983 -6.045182,-6.72988 -5.10159,-5.79392 -5.038852,-5.74546 -6.05021,-4.67333 -2.172693,2.30326 -3.24998,3.51414 -5.09932,5.73166 -1.152913,1.38245 -3.346888,3.95167 -4.875502,5.70937 -2.491207,2.86455 -5.285527,6.14151 -9.856901,11.55939 -2.14734,2.54497 -2.144983,2.55439 1.5875,6.34313 4.870408,4.94383 4.670369,4.94073 8.96763,0.1388 1.725382,-1.92802 3.39222,-3.78922 3.704086,-4.13602 0.7032,-0.78197 0.778416,-0.59995 1.024028,2.47804 0.889969,11.15305 5.215385,27.43047 10.370436,39.02604 9.9506112,22.38254 26.9324004,42.8571 46.511423,56.07779 6.644477,4.48667 8.565368,5.67153 12.964583,7.99691 5.636573,2.97943 6.381916,3.3423 9.921874,4.83048 1.964532,0.82587 3.81,1.60942 4.101042,1.74121 8.699645,3.93949 26.475391,8.11526 38.232291,8.9813 2.110052,0.15543 4.312708,0.32964 4.894791,0.38714 2.266414,0.22387 15.008474,-0.11984 18.520834,-0.49958 z m -11.89302,-44.2849 c 0.13824,-0.12311 1.47358,-0.73227 2.96741,-1.35371 1.49384,-0.62143 2.80353,-1.27333 2.91042,-1.44866 0.1069,-0.17533 0.73014,-0.52693 1.38498,-0.78134 1.53741,-0.59729 5.01559,-2.46914 7.14302,-3.84417 0.91865,-0.59375 1.78118,-1.07955 1.91673,-1.07955 0.13555,0 0.74217,-0.3361 1.34804,-0.74688 0.60587,-0.41078 2.6494,-1.78091 4.54117,-3.04473 18.92493,-12.643 29.18522,-26.02152 32.39933,-42.24589 0.97612,-4.92732 0.7026,-61.44698 -0.30732,-63.5033 -0.83003,-1.69005 -1.95048,-2.84353 -3.70022,-3.80933 -1.73418,-0.9572 -100.253696,-1.1115 -102.403862,-0.16038 -1.352929,0.59846 -3.054061,2.32445 -3.955068,4.01285 -0.756007,1.41669 -0.994537,60.72232 -0.256304,63.72474 4.379708,17.81248 15.528406,31.57613 35.493236,43.81826 1.81901,1.11539 3.962135,2.45584 4.7625,2.97877 1.755136,1.14676 2.857005,1.73589 9.524999,5.09266 5.126559,2.5808 5.749149,2.81967 6.230939,2.39066 z M 86.386457,211.55477 c -3.360035,-1.506 -3.648635,-5.86108 -0.545258,-8.22814 3.319619,-2.532 8.475394,2.08465 6.547235,5.86261 -1.176738,2.30565 -3.815353,3.3456 -6.001977,2.36553 z m 15.610413,-0.017 c -3.629226,-1.70456 -3.80778,-6.36301 -0.31705,-8.27186 0.82845,-0.45303 19.7634,-0.85762 21.52947,-0.46004 3.86993,0.87122 4.23139,6.93116 0.51413,8.61924 -1.45089,0.65888 -20.35487,0.7569 -21.72655,0.11266 z M 86.61805,196.1797 c -2.53572,-1.29436 -3.674801,-3.49634 -2.882224,-5.57167 1.714909,-4.49042 6.55368,-4.71428 8.730658,-0.40391 1.594873,3.15782 -2.723916,7.5705 -5.848434,5.97558 z m 16.70174,-0.01 c -2.6761,-1.38897 -3.59398,-3.54649 -2.54746,-5.98793 1.73454,-4.04652 6.59574,-4.07241 8.48874,-0.0452 1.63204,3.472 -2.59862,7.76807 -5.94128,6.03314 z m 17.19792,0.14596 c -4.14961,-1.29492 -4.49062,-6.93901 -0.52917,-8.75811 2.06167,-0.94673 3.61108,-0.5372 5.2612,1.39059 2.90003,3.38804 -0.50345,8.68708 -4.73203,7.36752 z M 86.110597,180.21752 c -2.82013,-1.71977 -3.470185,-4.78282 -1.482524,-6.98562 3.157902,-3.49971 8.212122,-1.49171 8.234864,3.27163 0.01489,3.11777 -4.0572,5.35754 -6.75234,3.71399 z m 16.945203,0.0761 c -5.500767,-2.86818 -1.94785,-10.73003 3.80827,-8.42689 1.73442,0.69398 3.19139,3.61489 2.73905,5.49122 -0.60376,2.50445 -4.24401,4.13665 -6.54732,2.93567 z m 16.92782,0.0481 c -3.00479,-1.30927 -3.79886,-5.1494 -1.52222,-7.3614 3.24893,-3.15667 8.00943,-0.97284 8.00943,3.67423 0,2.7463 -3.75213,4.87892 -6.48721,3.68717 z M 97.236439,161.13459 c -0.08026,-0.12986 0.201366,-2.05897 0.625834,-4.28691 0.424467,-2.22794 0.882673,-4.76518 1.018235,-5.6383 0.135563,-0.87313 0.531844,-2.92125 0.880625,-4.55139 0.634147,-2.96388 0.634147,-2.96388 -1.016404,-4.45754 -7.076542,-6.40391 -2.76002,-17.26147 6.824021,-17.16481 8.47969,0.0855 12.37375,10.63407 6.17656,16.73155 -2.01868,1.9862 -2.01868,1.9862 -1.46501,4.52357 0.30452,1.39555 0.73169,3.48987 0.94927,4.65403 1.10987,5.93839 1.80513,9.56647 1.90362,9.93364 0.12519,0.46671 -15.609913,0.72028 -15.896751,0.25616 z M 239.31562,145.01476 c 2.03729,-2.35783 4.22452,-4.90517 4.86052,-5.66076 1.6141,-1.91762 6.73788,-7.85304 8.58689,-9.94712 3.04393,-3.44737 3.05825,-3.36556 -1.38283,-7.89698 -4.66007,-4.75486 -4.19505,-4.87264 -10.23325,2.5919 -1.41269,1.74639 -2.59703,3.14268 -2.63188,3.10287 -0.0349,-0.0398 -0.50288,-2.33456 -1.04005,-5.09946 -8.71249,-44.844065 -38.298,-82.088681 -78.59273,-98.938852 -1.60073,-0.669382 -3.13452,-1.344457 -3.40842,-1.500168 -1.11039,-0.631252 -8.40276,-3.134842 -13.26033,-4.552489 C 125.12509,12.126561 103.36786,10.52484 87.370041,13.076239 63.991424,16.80476 47.658519,23.057717 29.36875,35.281696 9.4402561,48.600917 -9.3905991,71.325261 -18.241968,92.736461 c -0.601582,1.455208 -1.257984,3.00302 -1.458671,3.439583 -1.471408,3.200807 -4.136676,11.606186 -5.579148,17.594796 -0.192783,0.80036 -0.527824,2.16958 -0.744536,3.0427 -1.561643,6.29183 -1.882187,9.82209 -0.806042,8.87723 4.214713,-3.70057 5.606853,-3.76685 9.235574,-0.4397 1.852083,1.69816 1.852083,1.69816 2.157525,-0.85614 1.436323,-12.01148 7.3602247,-28.359648 14.63544893,-40.389381 C 3.904192,76.224066 6.1594968,73.131882 12.513746,65.748961 c 4.466458,-5.18952 11.964987,-12.14167 18.310212,-16.976042 5.278918,-4.021961 8.144391,-5.883723 15.742708,-10.228389 2.610279,-1.49254 6.573989,-3.461898 8.202083,-4.075182 0.945885,-0.356304 1.838854,-0.738038 1.984375,-0.848298 0.452643,-0.342965 3.763134,-1.591218 8.995833,-3.391967 21.92397,-7.544781 45.870293,-8.640241 68.130203,-3.116717 12.54888,3.11385 22.74086,7.25589 33.64955,13.675246 0.82647,0.486347 2.19569,1.291478 3.04271,1.789181 0.84702,0.497704 3.11812,2.045516 5.04689,3.439584 1.92877,1.394067 4.01237,2.893195 4.63021,3.331396 4.00465,2.840266 13.54235,11.735211 17.30266,16.136605 0.74594,0.873125 2.03676,2.360472 2.86847,3.305216 0.83171,0.944745 2.45976,3.028338 3.6179,4.630209 1.15814,1.60187 2.2788,3.150616 2.49036,3.441658 2.86364,3.939458 7.75628,12.665841 10.90332,19.446875 3.77238,8.128484 7.13393,19.205554 8.3906,27.648954 0.66129,4.44307 0.82233,4.41832 -2.9796,0.45788 -3.4433,-3.58685 -4.59581,-4.55409 -5.43006,-4.55717 -1.04326,-0.004 -7.33584,6.71556 -7.33066,7.8279 0.004,0.86075 5.45823,6.81933 17.15154,18.73757 6.51103,6.63628 4.9767,6.81516 12.08257,-1.40871 z M 77.601701,98.977894 c 0.153785,-8.853192 0.181373,-8.987265 3.151704,-15.317032 1.02239,-2.178712 5.60729,-7.526164 7.352843,-8.575757 0.509323,-0.306253 1.223698,-0.823967 1.5875,-1.150476 0.664864,-0.596709 1.762873,-1.215113 3.96875,-2.235219 0.654844,-0.302832 1.42875,-0.686025 1.719792,-0.851539 0.540135,-0.307173 0.783369,-0.360794 5.15937,-1.137374 3.05267,-0.541735 9.21874,-0.39636 11.08273,0.261294 0.63505,0.224058 1.39607,0.407378 1.69116,0.407378 5.55848,0 15.67626,10.135056 18.16323,18.19425 0.93732,3.037428 1.1288,5.063392 1.17567,12.438791 0.0559,8.80299 16.66081,8.41083 16.78239,-0.39634 0.1818,-13.170583 -1.6953,-19.783538 -8.50763,-29.972117 -1.15686,-1.730201 -6.11339,-6.851059 -8.78842,-9.079779 -1.34661,-1.121938 -4.86133,-3.199493 -7.38975,-4.368089 -1.30969,-0.605317 -2.92186,-1.385093 -3.5826,-1.732836 -5.34555,-2.813305 -21.511681,-3.756392 -27.770525,-1.620054 -0.945886,0.32286 -2.229244,0.728575 -2.851908,0.901588 -0.622663,0.173014 -1.07019,0.414769 -0.994502,0.537234 0.07569,0.122465 -0.28758,0.30243 -0.807261,0.399923 -1.124982,0.211048 -7.756528,3.566928 -8.937902,4.523008 -0.45552,0.368649 -1.721187,1.362115 -2.812593,2.2077 -2.258253,1.749621 -4.931467,4.517971 -7.309704,7.569846 -0.760846,0.976357 -4.596546,7.180408 -4.596546,7.434682 0,0.06144 -0.233567,0.616428 -0.519038,1.233306 -2.858932,6.1779 -3.715002,11.11586 -3.713124,21.417938 0.0012,6.42657 0.0012,6.42657 8.308069,6.4503 8.306897,0.0237 8.306897,0.0237 8.438295,-7.540626 z"
       id="path1" /></g></svg>
